<svg xmlns="http://www.w3.org/2000/svg" height="120" width="112.524" viewBox="0 0 33.757335 38"><g fill="#78b657"><path d="M16.879 38c-1.57 0-2.995-.86-3.766-2.256a1.197 1.197 0 0 1-.105-.172c-.236-.475-.603-1.07-1.013-1.203-.32-.107-.813.017-1.467.36-.064.032-.13.06-.196.08-1.433.664-3.08.5-4.347-.45-1.256-.937-1.91-2.477-1.735-4.06 0-.064.002-.13.013-.197.24-1.55-.065-1.987-1.547-2.227a1.38 1.38 0 0 1-.208-.053A4.335 4.335 0 0 1-.728 24.86a4.464 4.464 0 0 1 .918-4.314c.04-.057.083-.112.132-.16 1.07-1.1 1.07-1.67 0-2.77a1.038 1.038 0 0 1-.133-.164A4.467 4.467 0 0 1-.73 13.14a4.333 4.333 0 0 1 3.24-2.96.957.957 0 0 1 .204-.053c1.483-.245 1.786-.682 1.548-2.23a1.52 1.52 0 0 1-.012-.202c-.173-1.58.48-3.118 1.736-4.057a4.231 4.231 0 0 1 4.354-.445c.064.02.127.048.19.078.652.343 1.145.466 1.466.36.41-.132.777-.726 1.012-1.202.03-.062.066-.12.106-.175C13.887.86 15.309 0 16.879 0c1.572 0 2.998.862 3.77 2.263.036.05.07.107.1.165.235.475.602 1.07 1.013 1.203.317.105.812-.016 1.467-.36a1.74 1.74 0 0 1 .19-.08 4.242 4.242 0 0 1 4.352.446c1.255.938 1.907 2.476 1.736 4.056 0 .067-.004.134-.014.202-.24 1.55.065 1.987 1.547 2.228.072.012.14.028.208.052a4.337 4.337 0 0 1 3.238 2.96 4.47 4.47 0 0 1-.92 4.318c-.037.056-.08.11-.128.16-1.07 1.1-1.07 1.67 0 2.768.05.05.093.104.132.162a4.471 4.471 0 0 1 .917 4.315 4.342 4.342 0 0 1-3.24 2.962c-.066.024-.134.04-.205.052-1.482.24-1.785.677-1.546 2.227.01.068.015.137.014.206.172 1.58-.48 3.116-1.736 4.052a4.228 4.228 0 0 1-4.35.448 1.146 1.146 0 0 1-.192-.08c-.656-.343-1.153-.464-1.467-.36-.41.132-.777.727-1.014 1.203a1.11 1.11 0 0 1-.1.168C19.875 37.138 18.449 38 16.879 38zm-1.832-3.662c.037.052.07.107.1.165.34.692 1.004 1.122 1.733 1.122.729 0 1.395-.43 1.736-1.122.027-.057.06-.11.096-.16.628-1.2 1.388-1.93 2.317-2.232.92-.298 1.94-.16 3.117.42.062.02.124.047.182.078.66.348 1.432.29 2.02-.15.606-.452.905-1.218.78-2.002a1.193 1.193 0 0 1-.013-.197c-.34-2.63.78-4.208 3.337-4.694.062-.02.126-.037.192-.048a1.978 1.978 0 0 0 1.572-1.373 2.099 2.099 0 0 0-.502-2.103c-.046-.048-.09-.1-.126-.153-1.773-1.92-1.772-3.864.002-5.783.036-.053.077-.103.124-.15a2.102 2.102 0 0 0 .502-2.105 1.972 1.972 0 0 0-1.57-1.372.973.973 0 0 1-.198-.05c-2.552-.486-3.673-2.064-3.333-4.696 0-.064.005-.128.014-.192.125-.784-.175-1.55-.78-2.003a1.88 1.88 0 0 0-2.022-.15c-.06.032-.12.058-.182.078-1.18.58-2.202.718-3.118.42-.93-.3-1.69-1.032-2.32-2.233a1.525 1.525 0 0 1-.093-.158c-.34-.692-1.006-1.122-1.735-1.122-.73 0-1.394.43-1.734 1.122-.03.058-.063.114-.1.167-.628 1.196-1.386 1.926-2.314 2.227-.916.298-1.94.16-3.12-.422a1.184 1.184 0 0 1-.18-.076 1.88 1.88 0 0 0-2.02.148c-.607.453-.907 1.222-.784 2.004.01.063.014.127.014.19.34 2.632-.78 4.212-3.336 4.7-.063.02-.127.037-.195.048-.74.12-1.34.644-1.57 1.373a2.095 2.095 0 0 0 .502 2.103c.048.05.09.1.128.156 1.77 1.918 1.77 3.86-.002 5.777a.931.931 0 0 1-.126.154 2.1 2.1 0 0 0-.503 2.103c.23.73.83 1.256 1.572 1.374.068.012.133.027.196.05 2.553.486 3.674 2.065 3.332 4.7 0 .062-.004.125-.014.19-.124.78.177 1.55.783 2 .588.44 1.36.5 2.02.15.06-.032.123-.058.186-.078 1.178-.58 2.198-.718 3.115-.42.93.298 1.688 1.03 2.318 2.226z"/><path d="M16.879 20.188c-1.458 0-2.84-.463-3.89-1.304-1.128-.903-1.75-2.127-1.75-3.445 0-1.32.62-2.546 1.75-3.448 2.132-1.708 5.962-1.64 8.194.145a1.186 1.186 0 1 1-1.485 1.853c-1.34-1.07-3.978-1.143-5.228-.144-.553.443-.858 1.01-.858 1.592 0 .582.305 1.148.858 1.59.632.507 1.487.785 2.407.785a1.189 1.189 0 0 1 0 2.376z"/><path d="M16.844 27.247c-1.547 0-3.12-.463-4.27-1.382a1.188 1.188 0 0 1 1.485-1.855c1.338 1.072 3.976 1.144 5.226.145.555-.443.86-1.01.86-1.592 0-.582-.305-1.15-.86-1.592-.63-.504-1.486-.782-2.406-.782a1.188 1.188 0 0 1 0-2.378c1.458.002 2.84.465 3.89 1.304 1.128.903 1.75 2.128 1.75 3.447s-.62 2.546-1.75 3.448c-1.036.83-2.47 1.24-3.925 1.24zm.035-14.185a1.188 1.188 0 0 1-1.188-1.188v-2.59a1.188 1.188 0 0 1 2.376 0v2.59c0 .657-.532 1.188-1.188 1.188z"/><path d="M16.879 29.904c-.656 0-1.188-.53-1.188-1.188v-2.59a1.189 1.189 0 1 1 2.376 0v2.59c0 .656-.532 1.188-1.188 1.188z"/></g></svg>