<svg xmlns="http://www.w3.org/2000/svg" viewBox="0 0 31.750006 19.48296" height="73.636" width="120"><path d="M3.54 0a.748.748 0 0 0-.654.722v14.792H.654a.747.747 0 0 0-.654.722v2.525a.75.75 0 0 0 .722.722h30.306a.75.75 0 0 0 .722-.722V2.886a.75.75 0 0 0-.722-.721h-2.164V.722A.75.75 0 0 0 28.142 0zm.79 1.443h23.09v.722h-5.05a.75.75 0 0 0-.722.721H4.33zm18.76 2.165h7.217V4.69H23.09zM4.33 4.33h17.318v11.184H4.33zm18.76 1.804h7.217v6.855H23.09zm0 8.298h7.217v3.608H23.09zm1.737 1.082a.75.75 0 0 0-.688.756.75.75 0 0 0 .756.687h3.608c.38.005.733-.34.733-.721a.751.751 0 0 0-.733-.722zM1.443 16.957h20.205v1.083H1.443z" fill="#78b657"/></svg>