<svg xmlns="http://www.w3.org/2000/svg" height="67.536" width="118.85" viewBox="0 0 49.521014 16.321286"><path d="M1.125-5.91C.513-5.91 0-5.29 0-4.781v18.008c0 .59.536 1.125 1.125 1.125h7.878c.59 0 1.125-.537 1.125-1.126V12.1H11.2l5.247 8.41c.73 1.172 2.166 1.71 3.248 1.72 1.258.01 2.28-.728 2.866-1.742.666.436 1.458.616 2.2.616.816 0 1.68-.216 2.443-.74a3.498 3.498 0 0 0 1.108-1.23c.49.19 1.006.28 1.513.28.807 0 1.664-.218 2.427-.738a3.562 3.562 0 0 0 1.143-1.266c.682.25 1.416.317 2.058.317 1.45 0 2.57-.953 3.15-2.04.576-1.08.77-2.43.087-3.587h.703v1.125c0 .59.536 1.125 1.125 1.125h7.878c.59 0 1.125-.536 1.125-1.125v-18.01c.003-.588-.533-1.124-1.122-1.124h-7.878c-.613 0-1.125.62-1.125 1.126v1.123h-4.308L25.59-5.89c-.09-.022-.18-.02-.268-.02-.278 0-.552.107-.72.247l-2.41 2.005H10.13v-1.125c0-.59-.537-1.126-1.126-1.126h-7.88zM2.25-3.655h5.63V12.1H2.25V-3.66zm39.393 0h5.627V12.1h-5.627V-2.322a1.1 1.1 0 0 0 0-.334v-1.001zm-16.02.088l9.003 2.128c.086.022.175.034.264.035h4.502V9.85h-2.058L31.918.83C31.621.333 30.91.143 30.406.424l-9.795 5.452c-1.1-.076-1.738-.377-2.074-.72-.365-.375-.528-.867-.528-1.496 0-.566.372-1.16 1.284-1.952l.018-.017 6.312-5.26zM10.128-1.406H19.5L17.85-.034l-.02.017c-1.122.972-2.074 2.154-2.074 3.675 0 1.05.306 2.185 1.16 3.06.856.875 2.172 1.397 3.87 1.442.2.005.404-.044.58-.142l9.18-5.1s5.9 9.33 6.077 9.654a1.97 1.97 0 0 1-3.371 2.028c-.21-.313-4.728-7.62-4.728-7.62-.32-.494-1.05-.65-1.548-.333-.496.317-.667 1.05-.352 1.548 0 0 4.126 6.33 4.326 6.718.56 1.09-.225 2.24-1.125 2.25a1.664 1.664 0 0 1-1.387-.725c-.19-.273-3.853-6.08-3.853-6.08a1.15 1.15 0 0 0-1.055-.528c-.773.066-1.27 1.093-.844 1.74 0 0 3.005 4.695 3.2 5.03.61 1.047-.238 2.236-1.124 2.252a1.667 1.667 0 0 1-1.466-.85c-.14-.248-2.613-4.76-2.613-4.76-.21-.4-.677-.65-1.125-.598-.74.084-1.222 1.045-.844 1.688 0 0 1.89 2.98 2.11 3.394.558 1.046-.266 2.235-1.125 2.25a1.66 1.66 0 0 1-1.332-.65c-.155-.197-5.598-8.95-5.598-8.95-.2-.32-.572-.526-.95-.528h-1.688V-1.406zM5.063 8.724a1.124 1.124 0 1 0 0 2.249 1.124 1.124 0 1 0 0-2.25zm39.392 0a1.124 1.124 0 1 0-.002 2.25 1.124 1.124 0 0 0 .002-2.251z" fill="#78b657"/></svg>